<?xml version="1.0" encoding="utf-8"?>
<!-- Generator: Adobe Illustrator 24.3.0, SVG Export Plug-In . SVG Version: 6.00 Build 0)  -->
<svg version="1.1" id="Layer_1" xmlns="http://www.w3.org/2000/svg" xmlns:xlink="http://www.w3.org/1999/xlink" x="0px" y="0px"
	 viewBox="0 0 500 100" style="enable-background:new 0 0 500 100;" xml:space="preserve">
<style type="text/css">
	.st0{enable-background:new    ;}
	.st1{fill:#D14747;}
</style>
<g class="st0">
	<path class="st1" d="M11.2,89.8C6.6,86.3,5,80.9,5,75.5c0-9.2,7.3-21.7,18.7-25.7c2.9-1.1,7.9-2.3,10.4-2.3c1,0,2,0.8,0.9,1.8
		C24.6,58,18.2,70,18.2,78.5c0,1.9,0.3,3.5,1,4.7c6.7-2.6,14.9-9.6,26.2-26.8c20.5-31,26.9-41.4,30.4-48.6c1-2,1.9-2.7,3.3-1.9
		c1.8,1.1,3.1,1.8,5.2,3.4c3.1,2.6,2.3,8.9-0.9,14.8c-3.5,6.8-9.1,16.1-17.2,28.8C46.5,83.6,32.8,92.8,20.5,92.8
		C17,92.8,13.7,91.8,11.2,89.8z"/>
	<path class="st1" d="M69.1,87.8c-1.9-1.5-3.3-3.1-4-4.6c-2.3-4.5-0.6-9.8,6-19c6.2-8.6,10.1-15,11.7-18.3c1.4-2.6,1.7-3,3.1-2.4
		c3,1.2,6.4,1.9,7.8,2.7c2.7,1.5,3.2,5-0.6,10.5c-5.4,7.4-14,19.6-14.9,26.3c5.3-0.6,12.2-5,21.9-18.6l0.3-0.5
		c0.8-1.1,1-1.2,1.4-0.8l0.3,0.4c0.8,0.8,0.7,1.4,0.2,2.3l-0.3,0.5c-4.6,8.2-17.6,24.3-26.1,24.3C73.4,90.5,70.9,89.2,69.1,87.8z
		 M93.2,33.6c2.7-3.5,6.6-9.5,8.6-12.9c0.3-0.6,0.6-0.7,1.1-0.5c2.7,1.2,5.1,3.1,6.2,5c0.8,1.4,0.7,2.7-0.7,4.3
		c-2.5,2.8-4.6,4.9-5.6,5.5c-1.9,1.3-3.5,1.5-5.9,1.5c-1.1,0-3.3-0.5-3.9-1.1C92.5,35.1,92.5,34.5,93.2,33.6z"/>
	<path class="st1" d="M125.1,89.8c-1.5,0-3.8-1.5-5.6-3.4c-2.4-2.7-2.9-5.3-1.6-8.6c2.2-5.4,9.9-14.8,16.8-24.6
		c-6.6,4.1-17.8,14.2-28.3,31.4c-3,5-5,5.4-7.3,4.6c-1.3-0.5-3.9-2.3-4.7-2.8c-1.7-1.2-2.6-3.5-2.4-6.8c0.5-3.9,4.3-10,8-15.2
		c12.2-17.1,14.9-20.5,16.8-20.5c1.9,0,4.4,2.8,7.6,4.7c2,1.1,2.5,2.3,2.4,4.2c6.7-5.4,10.6-7.4,12.7-7.4c1.4,0,3,0.5,4.6,1.8
		c1.6,1.3,2.4,2.4,2.4,4.7c0,2.7-1.4,6.6-3.3,10.3c8.7-7,10.9-8.5,13.3-8.5c1.5,0,2.5,0.4,4.1,1.2c2.3,1.2,3.3,3.2,3.3,4.7
		c0,5.3-7.8,13.3-10.5,20.2c5.5-1.2,11.5-5.5,18.4-15.3l0.3-0.5c0.8-1.1,1-1.2,1.4-0.8l0.3,0.4c0.8,0.8,0.7,1.4,0.2,2.3l-0.3,0.6
		c-6.6,11.7-17.2,20.6-24.3,20.6c-6.4,0-9.6-6.8-9.1-10.3c0.3-2.7,1.5-5.7,3.2-8.7c-3.2,2.7-6.4,7.6-12.2,15.7
		C127.9,88.2,126.6,89.8,125.1,89.8z"/>
	<path class="st1" d="M209.8,93c7.1-11.1,16-25.6,24.6-39.8c-6.7,0.7-13.7,1.5-20.9,2.6c-6.3,8.9-12.4,17.8-17.8,24.8
		c-3.5,4.7-5,6-9.1,7.9c-2.5,1.2-6.6,2.8-11.7,4.5c-1.6,0.6-2.9,0.3-1.5-2.3c5.9-10.3,12.3-20.9,19.3-31.8c-0.7-0.3-1.4-0.7-2-1.6
		c-1.1-1.5-1.7-3.4-1.7-4.1c0-0.5,0.2-0.7,0.9-0.8l8-1.5c8.8-13.4,18.3-27.6,28.5-42.3c1.1-1.5,2.4-2.2,3.4-0.9
		c3.2,3.8,5.7,6.2,6.8,8.6c1.3,2.3,0.8,4-1.9,8.1c-3.9,6-9.2,14.1-15.1,22.6c7.6-1.4,14.7-2.6,20.9-3.7
		c10.5-17.2,19.6-32.2,22.7-37.1c0.7-1.1,1-1.3,2.3-0.6c1.9,1.2,5,3.7,7.3,5.8c1.9,1.8,2.4,4.7,0.2,8.1c-7,11-34.7,53.8-45.6,69.5
		c-1.6,2.3-2.9,3.5-5.7,4.3c-3.5,1.1-6.7,2-8.7,2S208.9,94.4,209.8,93z"/>
	<path class="st1" d="M256.3,84.2c-2.4-2.8-3.9-6.5-3.9-10.5c0-4.1,1.5-8.7,4.9-13.5c5.6-7.9,15.1-15.7,22.6-15.7
		c3.7,0,7.9,2.3,9.4,4.7c3.1,1.2,4.6,4.9,4.6,9.1c0,4.7-2,10.4-4.6,15c-5.4,9.8-13.5,16.3-22,16.3C262.4,89.5,259.3,87.4,256.3,84.2
		z M267,81.1c11.2-3.1,22.2-16.3,22.2-25.5c0-1.6-0.6-3-1.6-3.3c-5.1,1.8-12.1,8.4-17.3,17.3C267.9,73.6,266.4,77.7,267,81.1z"/>
	<path class="st1" d="M297.1,86.2c-2.5-1.9-3.7-3.4-3.7-6c0-4,2.4-8.4,7.8-15.9c6.8-9.6,11.5-17.3,12.9-20.3
		c0.3-0.7,0.9-0.9,2.3-0.8c2,0.1,4.6,0.8,6,1.6c1.6,0.9,2.5,2.6,1.4,7.7c6.2-5.5,11.7-9.2,17.9-13c2-1.2,3-1.8,3.5-1.8
		c0.9,0,1.3,1.9,1.3,3.1c0,1.2-0.8,1.9-2.2,3c-10.5,8-21.2,18.7-34,37.2c-4.8,6.9-5.5,7.7-7.3,7.7C301.4,88.8,299.6,88,297.1,86.2z"
		/>
	<path class="st1" d="M336.7,85.5c-4.8-4.7-5.4-9.6,1.8-21.2c2.9-4.7,5.5-8.8,7.8-12.7c-1.5,0-2-0.4-2.9-1.2
		c-1.5-1.4-2.6-3.8-2.6-4.7c0-0.5,0.3-0.8,2.2-1.1c2.6-0.4,5.7-0.8,8.7-1.2c4.1-6.4,7.9-12,12.2-17.9c3.3-4.7,4.7-5.7,5.6-5.7
		c1.6,0,2.2,1.9,4.1,3.8c4.7,4.1,3.7,6.8-3.2,18.1c3.2-0.1,6.2-0.3,8.3-0.3c1.1,0,1.3,0.4,1.3,0.8c0,1.3-1,2.4-2.4,2.7
		c-1.4,0.3-1.5,0.9-5.6,2l-5.8,1.4c-12.3,20-17.1,28.3-17.9,32.5c8.7-0.6,15.7-5.2,23.8-16.8l0.3-0.5c0.8-1.1,1-1.2,1.4-0.8l0.3,0.4
		c0.8,0.8,0.7,1.4,0.2,2.3l-0.3,0.6c-3.9,6.8-18.2,23.3-28.3,23.3C343.1,89.5,339.8,88.6,336.7,85.5z"/>
	<path class="st1" d="M370.5,84.2c-2.4-2.8-3.9-6.5-3.9-10.5c0-4.1,1.5-8.7,4.9-13.5c5.6-7.9,15.1-15.7,22.6-15.7
		c3.7,0,7.9,2.3,9.4,4.7c3.1,1.2,4.6,4.9,4.6,9.1c0,4.7-2,10.4-4.6,15c-5.4,9.8-13.5,16.3-22,16.3C376.6,89.5,373.5,87.4,370.5,84.2
		z M381.2,81.1c11.2-3.1,22.2-16.3,22.2-25.5c0-1.6-0.6-3-1.6-3.3c-5.1,1.8-12.1,8.4-17.3,17.3C382.1,73.6,380.6,77.7,381.2,81.1z"
		/>
	<path class="st1" d="M416.7,89.5c-1.9,0-3.9-1.2-5.7-2.7c-2-1.6-3.5-3.9-3.5-6.8c0-3.4,3.3-9.3,8-15.8c7.1-9.8,12.2-17.2,13.6-19.9
		c0.5-0.8,0.9-1.1,1.6-1.1c2.4,0,6.4,2,9.1,4.9c1.8,1.9,2.6,3.7,1.7,6.2c5.9-3.3,10.8-5.5,13.2-5.5c1.9,0,3.7,0.8,5.2,2.3
		c2.5,2.4,2.6,4.6,0.9,8.6c-2.6,6.1-9.7,15.4-11.1,21c5.2-1.3,11.5-5.7,19.2-16.5l0.3-0.5c0.8-1.1,1-1.2,1.4-0.8l0.3,0.4
		c0.8,0.8,0.7,1.4,0.2,2.3l-0.3,0.6c-4.1,7.2-16,21.9-25.5,21.9c-2.6,0-5-1.4-7.2-3.9c-2.6-3.2-3.8-6.5-2-10.6
		c2.7-6.2,8.3-11.7,11.9-17.2c-4.6,3.3-10.7,8.5-16.5,13.8c-5.7,8.9-9.4,14.6-12.1,17.5C418.1,89,417.4,89.5,416.7,89.5z"/>
	<path class="st1" d="M460.7,92c-1.3-1.4-2-2.7-2.4-3.9c-0.5-1.1-0.2-1.8,0.7-2.2c11.2-4,16.6-9.5,16.6-13.3c0-4.3-7.3-7.7-7.3-14.1
		c0-5,3.4-9.5,8.6-12.5c2.7-1.8,6.3-2.8,8.1-2.8c2.9,0,5.5,1.2,7.9,5.2c2.6,4.5,2.4,5.9,1.3,6.4c-7.8,2.6-16.2,7.7-16.2,11.8
		c0,3.5,7,5.4,7,12.9c0,3.8-1.7,7.6-6.8,11.4c-2.4,1.9-7,4-10.9,4C464.1,95,462.3,93.9,460.7,92z"/>
</g>
</svg>
